<svg xmlns="http://www.w3.org/2000/svg" width="980.065" height="2102.962" viewBox="0 0 980.065 2102.962">
  <defs>
    <style>
      .cls-1 {
        fill: #769184;
      }

      .cls-2 {
        fill: #64a0ac;
      }

      .cls-3 {
        fill: #fcde9c;
      }
    </style>
  </defs>
  <g id="steps" transform="translate(-138 -668.596)">
    <path id="Path_1" data-name="Path 1" class="cls-1" d="M.007,17.979C-.626-4.958,43.586-.927,58.113,3.16s14.527,31.671,0,36.965S.639,40.915.007,17.979Z" transform="translate(484.59 672.591) rotate(9)"/>
    <path id="Path_2" data-name="Path 2" class="cls-2" d="M.007,24.146c-.633,22.936,43.58,18.906,58.106,14.819S72.64,7.294,58.113,2,.639,1.21.007,24.146Z" transform="translate(714.397 750.699) rotate(9)"/>
    <path id="Path_3" data-name="Path 3" class="cls-1" d="M.007,17.979C-.626-4.958,43.586-.927,58.113,3.16s14.527,31.671,0,36.965S.639,40.915.007,17.979Z" transform="translate(641.349 668.596) rotate(9)"/>
    <path id="Path_4" data-name="Path 4" class="cls-3" d="M.007,24.146c-.633,22.936,43.58,18.906,58.106,14.819S72.64,7.294,58.113,2,.639,1.21.007,24.146Z" transform="translate(563.842 766.846) rotate(9)"/>
    <path id="Path_5" data-name="Path 5" class="cls-3" d="M.007,17.979C-.626-4.958,43.586-.927,58.113,3.16s14.527,31.671,0,36.965S.639,40.915.007,17.979Z" transform="translate(811.29 682.35) rotate(9)"/>
    <path id="Path_6" data-name="Path 6" class="cls-1" d="M.007,24.146c-.633,22.936,43.58,18.906,58.106,14.819S72.64,7.294,58.113,2,.639,1.21.007,24.146Z" transform="matrix(0.719, 0.695, -0.695, 0.719, 906.751, 754.053)"/>
    <path id="Path_7" data-name="Path 7" class="cls-2" d="M.007,17.979C-.626-4.957,43.586-.927,58.113,3.16s14.527,31.671,0,36.965S.639,40.915.007,17.979Z" transform="matrix(-0.695, -0.719, 0.719, -0.695, 1016.296, 790.399)"/>
    <path id="Path_8" data-name="Path 8" class="cls-3" d="M.007,24.146c-.633,22.936,43.58,18.906,58.106,14.819S72.64,7.294,58.113,2,.639,1.21.007,24.146Z" transform="translate(1030.125 830.439) rotate(90)"/>
    <path id="Path_17" data-name="Path 17" class="cls-3" d="M.007,24.146c-.633,22.936,43.58,18.906,58.106,14.819S72.64,7.294,58.113,2,.639,1.21.007,24.146Z" transform="translate(988 1628.127) rotate(173)"/>
    <path id="Path_18" data-name="Path 18" class="cls-1" d="M.007,17.979C-.626-4.958,43.586-.927,58.113,3.16s14.527,31.671,0,36.965S.639,40.915.007,17.979Z" transform="translate(910.715 1696.093) rotate(173)"/>
    <path id="Path_19" data-name="Path 19" class="cls-2" d="M.007,24.146c-.633,22.936,43.58,18.906,58.106,14.819S72.64,7.294,58.113,2,.639,1.21.007,24.146Z" transform="translate(821.217 1664.725) rotate(173)"/>
    <path id="Path_20" data-name="Path 20" class="cls-3" d="M.007,17.979C-.626-4.958,43.586-.927,58.113,3.16s14.527,31.671,0,36.965S.639,40.915.007,17.979Z" transform="translate(581.387 1803.866) rotate(173)"/>
    <path id="Path_21" data-name="Path 21" class="cls-2" d="M.007,24.146c-.633,22.936,43.58,18.906,58.106,14.819S72.64,7.294,58.113,2,.639,1.21.007,24.146Z" transform="translate(658.68 1735.899) rotate(173)"/>
    <path id="Path_22" data-name="Path 22" class="cls-2" d="M.007,17.979C-.626-4.958,43.586-.927,58.113,3.16s14.527,31.671,0,36.965S.639,40.915.007,17.979Z" transform="translate(408.161 1787.923) rotate(173)"/>
    <path id="Path_23" data-name="Path 23" class="cls-1" d="M.007,24.146c-.633,22.936,43.58,18.906,58.106,14.819S72.64,7.294,58.113,2,.639,1.21.007,24.146Z" transform="translate(486.303 1726.94) rotate(173)"/>
    <path id="Path_24" data-name="Path 24" class="cls-3" d="M.007,17.979C-.626-4.958,43.586-.927,58.113,3.16s14.527,31.671,0,36.965S.639,40.915.007,17.979Z" transform="translate(743.912 1732.522) rotate(173)"/>
    <path id="Path_25" data-name="Path 25" class="cls-1" d="M138,663.027c-.633,22.936,43.58,18.906,58.106,14.819s14.527-31.671,0-36.965S138.631,640.091,138,663.027Z" transform="translate(0.008 102.994)"/>
    <path id="Path_26" data-name="Path 26" class="cls-2" d="M138,656.86c-.633-22.936,43.58-18.906,58.106-14.819s14.527,31.671,0,36.965S138.631,679.8,138,656.86Z" transform="translate(85 53.994)"/>
    <path id="Path_27" data-name="Path 27" class="cls-3" d="M138,663.027c-.633,22.936,43.58,18.906,58.106,14.819s14.527-31.671,0-36.965S138.631,640.091,138,663.027Z" transform="translate(170.008 111.994)"/>
    <path id="Path_28" data-name="Path 28" class="cls-2" d="M138,656.86c-.633-22.936,43.58-18.906,58.106-14.819s14.527,31.671,0,36.965S138.631,679.8,138,656.86Z" transform="translate(255.008 85.994)"/>
    <path id="Path_29" data-name="Path 29" class="cls-1" d="M.007,24.146c-.633,22.936,43.58,18.906,58.106,14.819S72.64,7.294,58.113,2,.639,1.21.007,24.146Z" transform="translate(204.06 1941.447) rotate(90)"/>
    <path id="Path_30" data-name="Path 30" class="cls-2" d="M.007,17.979C-.626-4.958,43.586-.927,58.113,3.16s14.527,31.671,0,36.965S.639,40.915.007,17.979Z" transform="translate(277.1 1849.447) rotate(90)"/>
    <path id="Path_31" data-name="Path 31" class="cls-2" d="M.007,24.146c-.633,22.936,43.58,18.906,58.106,14.819S72.64,7.294,58.113,2,.639,1.21.007,24.146Z" transform="translate(220.06 2116.439) rotate(90)"/>
    <path id="Path_32" data-name="Path 32" class="cls-3" d="M.007,17.979C-.626-4.958,43.586-.927,58.113,3.16s14.527,31.671,0,36.965S.639,40.915.007,17.979Z" transform="translate(292 2026.447) rotate(90)"/>
    <path id="Path_33" data-name="Path 33" class="cls-3" d="M.007,17.979C-.626-4.958,43.586-.927,58.113,3.16s14.527,31.671,0,36.965S.639,40.915.007,17.979Z" transform="translate(260.53 1781.721) rotate(131)"/>
    <path id="Path_34" data-name="Path 34" class="cls-1" d="M.007,24.146c-.633,22.936,43.58,18.906,58.106,14.819S72.64,7.294,58.113,2,.639,1.21.007,24.146Z" transform="translate(262.935 2217.439) rotate(90)"/>
    <path id="Path_35" data-name="Path 35" class="cls-1" d="M.007,24.146c-.633,22.936,43.58,18.906,58.106,14.819S72.64,7.294,58.113,2,.639,1.21.007,24.146Z" transform="translate(246.952 2372.282) rotate(7)"/>
    <path id="Path_36" data-name="Path 36" class="cls-2" d="M.007,17.979C-.626-4.958,43.586-.927,58.113,3.16s14.527,31.671,0,36.965S.639,40.915.007,17.979Z" transform="translate(336.45 2340.914) rotate(7)"/>
    <path id="Path_37" data-name="Path 37" class="cls-3" d="M.007,24.146c-.633,22.936,43.58,18.906,58.106,14.819S72.64,7.294,58.113,2,.639,1.21.007,24.146Z" transform="translate(576.28 2480.055) rotate(7)"/>
    <path id="Path_38" data-name="Path 38" class="cls-2" d="M.007,17.979C-.626-4.958,43.586-.927,58.113,3.16s14.527,31.671,0,36.965S.639,40.915.007,17.979Z" transform="translate(498.987 2412.088) rotate(7)"/>
    <path id="Path_39" data-name="Path 39" class="cls-2" d="M.007,24.146c-.633,22.936,43.58,18.906,58.106,14.819S72.64,7.294,58.113,2,.639,1.21.007,24.146Z" transform="translate(749.506 2464.112) rotate(7)"/>
    <path id="Path_40" data-name="Path 40" class="cls-1" d="M.007,17.979C-.626-4.958,43.586-.927,58.113,3.16s14.527,31.671,0,36.965S.639,40.915.007,17.979Z" transform="translate(671.364 2403.129) rotate(7)"/>
    <path id="Path_41" data-name="Path 41" class="cls-3" d="M.007,24.146c-.633,22.936,43.58,18.906,58.106,14.819S72.64,7.294,58.113,2,.639,1.21.007,24.146Z" transform="translate(413.755 2408.711) rotate(7)"/>
    <path id="Path_42" data-name="Path 42" class="cls-3" d="M.007,17.979C-.626-4.958,43.586-.927,58.113,3.16s14.527,31.671,0,36.965S.639,40.915.007,17.979Z" transform="matrix(0.891, 0.454, -0.454, 0.891, 1056.079, 2461.774)"/>
    <path id="Path_43" data-name="Path 43" class="cls-2" d="M.007,24.146c-.633,22.936,43.58,18.906,58.106,14.819S72.64,7.294,58.113,2,.639,1.21.007,24.146Z" transform="matrix(0.999, -0.035, 0.035, 0.999, 937.647, 2488.566)"/>
    <path id="Path_44" data-name="Path 44" class="cls-3" d="M.007,17.979C-.626-4.958,43.586-.927,58.113,3.16s14.527,31.671,0,36.965S.639,40.915.007,17.979Z" transform="matrix(0.999, -0.035, 0.035, 0.999, 857.696, 2434.283)"/>
    <path id="Path_45" data-name="Path 45" class="cls-1" d="M.007,17.979C-.626-4.958,43.586-.927,58.113,3.16s14.527,31.671,0,36.965S.639,40.915.007,17.979Z" transform="matrix(-0.438, 0.899, -0.899, -0.438, 1062.772, 2563.691)"/>
    <path id="Path_46" data-name="Path 46" class="cls-2" d="M.007,24.146c-.633,22.936,43.58,18.906,58.106,14.819S72.64,7.294,58.113,2,.639,1.21.007,24.146Z" transform="translate(1105.485 2627.609) rotate(103)"/>
    <path id="Path_47" data-name="Path 47" class="cls-1" d="M.007,24.146c-.633,22.936,43.58,18.906,58.106,14.819S72.64,7.294,58.113,2,.639,1.21.007,24.146Z" transform="translate(1007.917 2756.035) rotate(167)"/>
    <path id="Path_48" data-name="Path 48" class="cls-3" d="M.007,17.979C-.626-4.958,43.586-.927,58.113,3.16s14.527,31.671,0,36.965S.639,40.915.007,17.979Z" transform="translate(1022.212 2663.857) rotate(141)"/>
    <path id="Path_54" data-name="Path 54" class="cls-1" d="M.007,17.979C-.626-4.958,43.586-.927,58.113,3.16s14.527,31.671,0,36.965S.639,40.915.007,17.979Z" transform="translate(1118.065 1086.447) rotate(90)"/>
    <path id="Path_55" data-name="Path 55" class="cls-2" d="M.007,24.146c-.633,22.936,43.58,18.906,58.106,14.819S72.64,7.294,58.113,2,.639,1.21.007,24.146Z" transform="translate(1045.025 994.447) rotate(90)"/>
    <path id="Path_56" data-name="Path 56" class="cls-2" d="M.007,17.979C-.626-4.958,43.586-.927,58.113,3.16s14.527,31.671,0,36.965S.639,40.915.007,17.979Z" transform="translate(1102.065 1261.439) rotate(90)"/>
    <path id="Path_57" data-name="Path 57" class="cls-3" d="M.007,24.146c-.633,22.936,43.58,18.906,58.106,14.819S72.64,7.294,58.113,2,.639,1.21.007,24.146Z" transform="translate(1030.125 1171.447) rotate(90)"/>
    <path id="Path_58" data-name="Path 58" class="cls-1" d="M.007,17.979C-.626-4.958,43.586-.927,58.113,3.16s14.527,31.671,0,36.965S.639,40.915.007,17.979Z" transform="translate(1045.19 1335.439) rotate(90)"/>
    <path id="Path_59" data-name="Path 59" class="cls-1" d="M.007,24.146c-.633,22.936,43.58,18.906,58.106,14.819S72.64,7.294,58.113,2,.639,1.21.007,24.146Z" transform="translate(1099.099 898.955) rotate(88)"/>
    <path id="Path_60" data-name="Path 60" class="cls-3" d="M.007,24.146c-.633,22.936,43.58,18.906,58.106,14.819S72.64,7.294,58.113,2,.639,1.21.007,24.146Z" transform="translate(1099.125 1447.992) rotate(90)"/>
    <path id="Path_61" data-name="Path 61" class="cls-2" d="M.007,17.979C-.626-4.958,43.586-.927,58.113,3.16s14.527,31.671,0,36.965S.639,40.915.007,17.979Z" transform="matrix(-0.454, 0.891, -0.891, -0.454, 1043.494, 1491.323)"/>
  </g>
</svg>
